<svg width="32" height="32" viewBox="0 0 32 32" fill="none" xmlns="http://www.w3.org/2000/svg">
<path d="M13.6002 6.40002H18.4002C18.4002 5.07454 17.3257 4.00002 16.0002 4.00002C14.6747 4.00002 13.6002 5.07454 13.6002 6.40002ZM12.0002 6.40002C12.0002 4.19089 13.7911 2.40002 16.0002 2.40002C18.2093 2.40002 20.0002 4.19089 20.0002 6.40002H28.0002C28.442 6.40002 28.8002 6.7582 28.8002 7.20002C28.8002 7.64185 28.442 8.00002 28.0002 8.00002H26.3132L24.4036 24.5502C24.1241 26.9723 22.0733 28.8 19.6352 28.8H12.3652C9.92709 28.8 7.8763 26.9723 7.59683 24.5502L5.6872 8.00002H4.0002C3.55837 8.00002 3.2002 7.64185 3.2002 7.20002C3.2002 6.7582 3.55837 6.40002 4.0002 6.40002H12.0002ZM9.18629 24.3668C9.3726 25.9815 10.7398 27.2 12.3652 27.2H19.6352C21.2606 27.2 22.6278 25.9815 22.8141 24.3668L24.7026 8.00002H7.29781L9.18629 24.3668ZM13.6002 12C14.042 12 14.4002 12.3582 14.4002 12.8V22.4C14.4002 22.8419 14.042 23.2 13.6002 23.2C13.1584 23.2 12.8002 22.8419 12.8002 22.4V12.8C12.8002 12.3582 13.1584 12 13.6002 12ZM19.2002 12.8C19.2002 12.3582 18.842 12 18.4002 12C17.9584 12 17.6002 12.3582 17.6002 12.8V22.4C17.6002 22.8419 17.9584 23.2 18.4002 23.2C18.842 23.2 19.2002 22.8419 19.2002 22.4V12.8Z" fill="#C4C4C4"/>
</svg>
