<svg width="52" height="52" viewBox="0 0 52 52" fill="none" xmlns="http://www.w3.org/2000/svg">
<path d="M26 21.125C26.8975 21.125 27.625 21.8525 27.625 22.75V37.375C27.625 38.2725 26.8975 39 26 39C25.1025 39 24.375 38.2725 24.375 37.375V22.75C24.375 21.8525 25.1025 21.125 26 21.125ZM26 17.875C27.3462 17.875 28.4375 16.7837 28.4375 15.4375C28.4375 14.0913 27.3462 13 26 13C24.6538 13 23.5625 14.0913 23.5625 15.4375C23.5625 16.7837 24.6538 17.875 26 17.875ZM3.25 26C3.25 13.4355 13.4355 3.25 26 3.25C38.5645 3.25 48.75 13.4355 48.75 26C48.75 38.5645 38.5645 48.75 26 48.75C13.4355 48.75 3.25 38.5645 3.25 26ZM26 6.5C15.2304 6.5 6.5 15.2304 6.5 26C6.5 36.7695 15.2304 45.5 26 45.5C36.7695 45.5 45.5 36.7695 45.5 26C45.5 15.2304 36.7695 6.5 26 6.5Z" fill="#615B4C"/>
</svg>
