<svg width="28" height="28" viewBox="0 0 28 28" fill="none" xmlns="http://www.w3.org/2000/svg">
<path d="M13.7085 3.5C14.1515 3.5 14.5177 3.82902 14.5757 4.25609L14.5837 4.37482L14.5851 12.8333H23.047C23.5303 12.8333 23.922 13.2251 23.922 13.7083C23.922 14.1513 23.5929 14.5174 23.1658 14.5753L23.047 14.5833H14.5851L14.5875 23.0406C14.5876 23.5239 14.1959 23.9158 13.7127 23.9158C13.2697 23.9158 12.9035 23.5868 12.8455 23.1597L12.8375 23.041L12.8351 14.5833H4.37793C3.89468 14.5833 3.50293 14.1916 3.50293 13.7083C3.50293 13.2654 3.83211 12.8993 4.2592 12.8413L4.37793 12.8333H12.8351L12.8337 4.37518C12.8336 3.89193 13.2253 3.5 13.7085 3.5Z" fill="#615B4C"/>
</svg>
